<?xml version="1.0" standalone="no"?>
<!DOCTYPE svg PUBLIC "-//W3C//DTD SVG 1.1//EN" "http://www.w3.org/Graphics/SVG/1.1/DTD/svg11.dtd" >
<svg xmlns="http://www.w3.org/2000/svg">
<metadata></metadata>
<defs>
<font id="soleilbold" horiz-adv-x="1126" >
<font-face units-per-em="2048" ascent="1536" descent="-512" />
<missing-glyph horiz-adv-x="512" />
<glyph unicode="&#xfb01;" horiz-adv-x="1306" d="M55 836v241h117v86q0 193 78 287q88 111 303 111q90 0 186 -29l-45 -240q-51 18 -112 19q-63 0 -90 -33q-29 -39 -29 -131v-70h268v-241h-268v-836h-291v836h-117zM874 0v1077h291v-1077h-291zM874 1227v248h291v-248h-291z" />
<glyph unicode="&#xfb02;" horiz-adv-x="1306" d="M55 836v241h117v86q0 193 78 287q88 111 303 111q90 0 186 -29l-45 -240q-51 18 -112 19q-63 0 -90 -33q-29 -39 -29 -131v-70h268v-241h-268v-836h-291v836h-117zM874 0v1536h291v-1536h-291z" />
<glyph unicode="&#xfb03;" horiz-adv-x="2039" d="M55 836v241h117v86q0 193 78 287q88 111 303 111q135 -1 268 -62l-90 -223q-68 35 -149 35q-63 0 -90 -33q-29 -39 -29 -131v-70h221v-241h-221v-836h-291v836h-117zM788 836v241h117v86q0 193 78 287q90 111 303 111q91 0 187 -29l-46 -240q-51 18 -112 19 q-63 0 -90 -33q-29 -39 -29 -131v-70h268v-241h-268v-836h-291v836h-117zM1608 0v1077h290v-1077h-290zM1608 1227v248h290v-248h-290z" />
<glyph unicode="&#xfb04;" horiz-adv-x="2039" d="M55 836v241h117v86q0 193 78 287q88 111 303 111q135 -1 268 -62l-90 -223q-68 35 -149 35q-63 0 -90 -33q-29 -39 -29 -131v-70h221v-241h-221v-836h-291v836h-117zM788 836v241h117v86q0 193 78 287q90 111 303 111q91 0 187 -29l-46 -240q-51 18 -112 19 q-63 0 -90 -33q-29 -39 -29 -131v-70h268v-241h-268v-836h-291v836h-117zM1608 0v1536h290v-1536h-290z" />
<glyph horiz-adv-x="0" />
<glyph horiz-adv-x="682" />
<glyph unicode="&#xd;" horiz-adv-x="681" />
<glyph unicode=" "  horiz-adv-x="512" />
<glyph unicode="&#x09;" horiz-adv-x="512" />
<glyph unicode="&#xa0;" horiz-adv-x="512" />
<glyph unicode="!" horiz-adv-x="669" d="M174 1178v256h322v-256l-23 -689h-276zM178 0v305h314v-305h-314z" />
<glyph unicode="&#x22;" horiz-adv-x="1036" d="M135 1434h301l-20 -594h-262zM600 1434h303l-20 -594h-262z" />
<glyph unicode="#" horiz-adv-x="1222" d="M29 340v197h192l55 290h-131v197h170l64 340h225l-65 -340h264l65 340h226l-66 -340h166v-197h-205l-57 -290h145v-197h-182l-64 -340h-225l64 340h-264l-64 -340h-223l63 340h-153zM444 537h263l57 290h-262z" />
<glyph unicode="$" d="M18 207l185 178q176 -168 323 -168q115 0 177.5 45t62.5 131q0 27 -8 49.5t-28.5 42t-37 31.5t-53.5 28.5t-56.5 25t-67.5 25.5t-66 23q-74 27 -125.5 53.5t-103.5 69.5t-79.5 105.5t-27.5 144.5q0 172 106.5 273.5t278.5 115.5v197h170v-201q178 -27 354 -151l-162 -199 q-150 121 -295 121q-68 0 -120 -38t-52 -105q0 -20 8.5 -38t26.5 -32t36.5 -26.5t51.5 -26t57.5 -21.5t66.5 -22.5t67 -24.5q76 -29 130 -57.5t110.5 -75.5t86 -114.5t29.5 -153.5q0 -178 -116 -287t-294 -137v-205h-168v197q-250 16 -467 227z" />
<glyph unicode="%" horiz-adv-x="1753" d="M98 1096q0 152 106.5 251t256 99t255 -99.5t105.5 -250.5q0 -150 -105.5 -249t-255 -99t-256 99t-106.5 249zM295 72l1020 1398l145 -108l-1020 -1399zM328 1095.5q0 -63.5 36.5 -103.5t96.5 -40q57 0 94 40t37 103.5t-37 104.5t-94 41q-59 0 -96 -41t-37 -104.5z M932 338q0 150 106.5 249t256 99t255 -99.5t105.5 -248.5q0 -152 -105.5 -251t-255 -99t-256 99t-106.5 251zM1161 337.5q0 -63.5 37 -104t96 -40.5q57 0 94 40.5t37 104t-37 103.5t-94 40q-59 0 -96 -40t-37 -103.5z" />
<glyph unicode="&#x26;" horiz-adv-x="1417" d="M106 436q0 106 58.5 203.5t167.5 165.5q-68 72 -95.5 134t-27.5 144q0 162 132 268.5t302 106.5q156 0 260.5 -81t145.5 -228l-263 -76q-25 141 -151 141q-59 0 -101 -39.5t-42 -97.5q0 -59 47 -120.5t170 -172.5l-160 -184l-45 39q-113 -66 -113 -190q0 -96 69.5 -163 t168.5 -67q135 0 219 111l-148 135l158 186l584 -522l-160 -186l-246 219q-147 -186 -413 -187q-211 0 -364 135.5t-153 325.5z" />
<glyph unicode="'" horiz-adv-x="571" d="M135 1434h303l-20 -594h-264z" />
<glyph unicode="(" horiz-adv-x="757" d="M66 629q0 618 589 987l107 -205q-414 -268 -414 -782q0 -523 412 -785l-101 -206q-594 362 -593 991z" />
<glyph unicode=")" horiz-adv-x="757" d="M-4 1411l106 205q590 -369 590 -987q0 -629 -594 -991l-100 206q412 262 412 785q0 514 -414 782z" />
<glyph unicode="*" horiz-adv-x="1036" d="M119 1071l80 250l233 -123l-47 258h264l-47 -260l236 125l80 -250l-261 -37l193 -184l-213 -156l-119 242l-119 -242l-213 156l193 184z" />
<glyph unicode="+" d="M49 514v246h389v389h246v-389h391v-246h-391v-391h-246v391h-389z" />
<glyph unicode="," horiz-adv-x="512" d="M-8 -258l114 563h310l-148 -563h-276z" />
<glyph unicode="-" horiz-adv-x="915" d="M168 473v242h580v-242h-580z" />
<glyph unicode="." horiz-adv-x="512" d="M98 0v305h314v-305h-314z" />
<glyph unicode="/" horiz-adv-x="829" d="M0 -29l594 1602l235 -92l-593 -1604z" />
<glyph unicode="0" horiz-adv-x="1150" d="M68 680q0 332 133 518t374.5 186t374.5 -186t133 -518t-133 -518.5t-374.5 -186.5t-374.5 186.5t-133 518.5zM362 680q0 -457 213 -457t213 457t-213 457t-213 -457z" />
<glyph unicode="1" horiz-adv-x="735" d="M92 942v262q178 92 293 156h190v-1360h-290v1026q-94 -43 -193 -84z" />
<glyph unicode="2" horiz-adv-x="1073" d="M78 997q14 172 143 279.5t305 107.5q180 0 310.5 -102t130.5 -274q0 -182 -140 -379q-102 -143 -327 -385h524v-244h-913v215q293 305 462 549q98 143 99 240q0 61 -42 100t-108 39q-72 0 -113.5 -52.5t-41.5 -140.5z" />
<glyph unicode="3" horiz-adv-x="1097" d="M57 264l244 113q66 -156 223 -156q82 0 138.5 45t56.5 125q0 92 -68.5 141.5t-181.5 49.5q-60 -1 -109 -11v238q100 0 160 16q66 16 104 58.5t38 103.5q0 66 -46.5 109t-126.5 43q-63 0 -107 -36t-56 -102l-246 107q41 131 154.5 203.5t257.5 72.5q188 0 324 -100 t136 -264q0 -88 -46 -168t-122 -123q104 -39 167 -131t63 -205q0 -193 -141.5 -305.5t-350.5 -112.5q-150 0 -277.5 76t-187.5 213z" />
<glyph unicode="4" horiz-adv-x="1132" d="M45 334v244q219 285 571 782h291v-787h191v-239h-191v-334h-286v334h-576zM352 573h269v412q-16 -25 -124 -194t-145 -218z" />
<glyph unicode="5" horiz-adv-x="1056" d="M57 246l244 123q55 -147 211 -148q86 0 139.5 61.5t53.5 145.5q0 88 -53.5 143.5t-141.5 55.5q-104 0 -174 -84l-189 133q33 309 46 684h745v-244h-471q-6 -150 -21 -280q74 33 158 32q170 0 282.5 -123.5t112.5 -293.5q0 -205 -138 -340.5t-343 -135.5q-154 0 -274.5 70 t-186.5 201z" />
<glyph unicode="6" horiz-adv-x="1136" d="M68 537q0 315 201.5 549.5t518.5 363.5l103 -227q-182 -78 -303 -177.5t-178 -240.5q98 82 229 82q184 0 307 -127t123 -309q0 -201 -132 -338.5t-341 -137.5q-240 0 -384 164t-144 398zM358 530q-12 -129 47.5 -222t176.5 -93q88 0 142 63.5t54 153.5q0 100 -59.5 157.5 t-147.5 57.5q-63 0 -121.5 -31t-91.5 -86z" />
<glyph unicode="7" horiz-adv-x="976" d="M20 1116v244h924v-182q-322 -672 -559 -1241l-260 116q82 193 175 393.5t193.5 406.5t127.5 263h-601z" />
<glyph unicode="8" horiz-adv-x="1155" d="M92 383q0 119 50.5 195.5t150.5 136.5q-160 100 -160 293q0 170 130 273t314.5 103t314.5 -103t130 -273q0 -193 -160 -293q100 -59 150.5 -136t50.5 -196q0 -174 -136 -291t-349 -117t-349.5 117t-136.5 291zM385 401.5q0 -77.5 55.5 -132t137 -54.5t137 54.5t55.5 132 t-55.5 132t-137 54.5t-137 -54.5t-55.5 -132zM416 987.5q0 -69.5 45 -116t116.5 -46.5t116.5 46.5t45 116t-45 113.5t-116.5 44t-116.5 -44t-45 -113.5z" />
<glyph unicode="9" horiz-adv-x="1136" d="M68 909q0 201 132 338t341 137q240 0 384 -163.5t144 -397.5q0 -315 -202 -549.5t-519 -363.5l-102 227q182 78 303 177.5t178 240.5q-98 -82 -229 -82q-184 0 -307 127t-123 309zM358 928q0 -100 59.5 -157.5t147.5 -57.5q63 0 121.5 30.5t91.5 85.5q12 129 -47 222.5 t-176 93.5q-88 0 -142.5 -63.5t-54.5 -153.5z" />
<glyph unicode=":" horiz-adv-x="512" d="M98 0v305h314v-305h-314zM98 772v305h314v-305h-314z" />
<glyph unicode=";" horiz-adv-x="512" d="M-8 -258l114 563h310l-148 -563h-276zM96 772v305h312v-305h-312z" />
<glyph unicode="&#x3c;" d="M25 541v200l1075 430v-243l-719 -287l719 -287v-241z" />
<glyph unicode="=" d="M66 309v246h993v-246h-993zM66 719v248h993v-248h-993z" />
<glyph unicode="&#x3e;" d="M25 113v241l718 287l-718 287v243l1077 -430v-200z" />
<glyph unicode="?" horiz-adv-x="1116" d="M125 999v35q0 188 124 306t312 118q190 0 311 -120.5t121 -270.5q0 -88 -21.5 -154.5t-68.5 -114.5t-91 -79t-116 -68v-162h-297v312q80 27 121 44t93.5 48t75 72t22.5 96q0 66 -40 111t-110 45q-72 0 -111.5 -46.5t-39.5 -128.5v-43h-285zM391 0v305h314v-305h-314z" />
<glyph unicode="@" horiz-adv-x="1634" d="M92 436q0 301 212 505t511 204q307 0 517 -184.5t210 -485.5q0 -178 -92 -299t-254 -121q-156 0 -225 138q-66 -94 -215 -95q-125 0 -204 97.5t-79 232.5q0 127 76 230.5t203 103.5q106 0 168 -72v60h204v-308q0 -94 15.5 -137t54.5 -43q49 0 80 61.5t31 131.5 q0 231 -125 358t-363 127q-207 0 -347 -143.5t-140 -358.5q0 -211 138 -356t337 -145q117 0 223 53l107 -176q-166 -82 -332 -82q-297 0 -504 206.5t-207 497.5zM678 426q0 -57 30.5 -101t86.5 -44q88 0 125 96v145q-55 61 -121 62q-59 0 -90 -47.5t-31 -110.5z" />
<glyph unicode="A" horiz-adv-x="1411" d="M25 0l585 1434h238l538 -1434h-337l-93 266h-510l-96 -266h-325zM532 506h342l-165 481h-2z" />
<glyph unicode="B" horiz-adv-x="1263" d="M160 0v1434h377q248 0 389 -93q168 -109 168 -313q0 -90 -46.5 -163.5t-134.5 -112.5q111 -37 175.5 -125t64.5 -201q0 -125 -68.5 -222.5t-187.5 -146.5q-137 -57 -377 -57h-360zM453 246h67q176 0 238 30q82 43 82 144q0 90 -57.5 141t-166.5 51h-163v-366zM453 850h82 q266 0 266 168q0 86 -62 133q-55 37 -229 37h-57v-338z" />
<glyph unicode="C" horiz-adv-x="1382" d="M100 717q0 313 223.5 527t540.5 214q217 0 441 -139l-142 -227q-144 110 -296 110h-3q-195 0 -322.5 -140t-127.5 -345q0 -217 120.5 -351.5t329.5 -134.5q168 0 305 119l164 -213q-211 -162 -481 -162q-326 0 -539 208t-213 534z" />
<glyph unicode="D" horiz-adv-x="1464" d="M160 0v1434h418q145 0 279 -40t251 -120t186.5 -222.5t69.5 -328.5q0 -190 -69.5 -334.5t-187.5 -226.5t-255 -122t-293 -40h-399zM453 248h32q565 0 566 457q0 236 -132.5 358.5t-375.5 122.5h-90v-938z" />
<glyph unicode="E" horiz-adv-x="1187" d="M160 0v1434h919v-248h-626v-324h626v-248h-626v-366h626v-248h-919z" />
<glyph unicode="F" horiz-adv-x="1030" d="M160 0v1434h794v-248h-501v-361h501v-247h-501v-578h-293z" />
<glyph unicode="G" horiz-adv-x="1624" d="M100 717q0 313 223.5 527t540.5 214q358 0 602 -282l-202 -177q-174 203 -400 203q-195 0 -322.5 -140t-127.5 -345q0 -217 124 -351.5t326 -134.5q193 0 332 134v215h-344v247h637v-559q-219 -293 -625 -293q-330 0 -547 207t-217 535z" />
<glyph unicode="H" horiz-adv-x="1513" d="M160 0v1434h293v-572h608v572h293v-1434h-293v614h-608v-614h-293z" />
<glyph unicode="I" horiz-adv-x="612" d="M160 0v1434h293v-1434h-293z" />
<glyph unicode="J" horiz-adv-x="696" d="M-90 41l92 231q72 -41 141 -41q72 0 99 43q20 37 20 142v1018h293v-1053q0 -211 -92 -309q-90 -96 -285 -97q-137 0 -268 66z" />
<glyph unicode="K" horiz-adv-x="1310" d="M160 0v1434h293v-588l483 588h354l-485 -580l498 -854h-342l-355 621l-153 -183v-438h-293z" />
<glyph unicode="L" horiz-adv-x="1048" d="M160 0v1434h293v-1186h587v-248h-880z" />
<glyph unicode="M" horiz-adv-x="1957" d="M160 0v1434h432l385 -1000l399 1000h424v-1434h-293v1047l-428 -1047h-209l-417 1051v-1051h-293z" />
<glyph unicode="N" horiz-adv-x="1531" d="M160 0v1434h258l663 -899v899h293v-1434h-264l-657 897v-897h-293z" />
<glyph unicode="O" horiz-adv-x="1701" d="M100 717q0 309 217.5 525t534.5 216q315 0 532.5 -216t217.5 -525t-217.5 -525.5t-532.5 -216.5q-317 0 -534.5 216.5t-217.5 525.5zM414 717q0 -207 125 -346.5t313 -139.5t312 140.5t124 345.5t-124 345t-312 140t-313 -139t-125 -346z" />
<glyph unicode="P" horiz-adv-x="1204" d="M160 0v1434h456q96 0 187.5 -25t171.5 -75t129 -139t49 -206q0 -119 -48 -209t-129 -140t-171 -74.5t-189 -24.5h-163v-541h-293zM453 788h116q272 0 273 195q0 94 -63.5 148.5t-170.5 54.5h-155v-398z" />
<glyph unicode="Q" horiz-adv-x="1701" d="M100 717q0 309 217.5 525t534.5 216q315 0 532.5 -216t217.5 -525q0 -295 -197 -504l182 -180l-176 -176l-207 204q-162 -86 -352 -86q-317 0 -534.5 216.5t-217.5 525.5zM414 717q0 -207 125 -346.5t313 -139.5q84 0 152 31l-177 174l179 174l192 -192q90 129 90 299 q0 205 -124 345t-312 140t-313 -139t-125 -346z" />
<glyph unicode="R" horiz-adv-x="1298" d="M160 0v1434h454q92 0 180.5 -25t168 -73t128 -135t48.5 -197q0 -156 -88 -255.5t-224 -144.5q217 -305 439 -604h-369l-393 571h-51v-571h-293zM453 819h114q117 0 187.5 44t70.5 134q0 84 -60 136.5t-159 52.5h-153v-367z" />
<glyph unicode="S" horiz-adv-x="1247" d="M76 215l194 191q98 -94 175 -137.5t182 -43.5q94 0 160.5 46t66.5 137q0 43 -19.5 76.5t-66.5 61t-82 43t-108.5 42t-114.5 45t-102.5 55.5t-94.5 77t-58.5 104.5t-25.5 144.5q0 193 138.5 297t330.5 104q252 0 475 -170l-168 -209q-152 129 -296 129q-78 0 -132.5 -37.5 t-54.5 -105.5q0 -23 7 -42t23.5 -35.5t30 -27t43 -23.5t44 -18.5t51.5 -17.5t47 -16q98 -33 158.5 -61.5t136.5 -82t113.5 -134.5t37.5 -187q0 -147 -86 -252t-204.5 -149t-251.5 -44q-309 0 -549 240z" />
<glyph unicode="T" horiz-adv-x="1005" d="M16 1186v248h973v-248h-340v-1186h-293v1186h-340z" />
<glyph unicode="U" horiz-adv-x="1466" d="M156 676v758h293v-797q0 -201 75.5 -303.5t208.5 -102.5t209 102.5t76 303.5v797h293v-758q0 -346 -140.5 -523.5t-441.5 -177.5q-573 0 -573 701z" />
<glyph unicode="V" horiz-adv-x="1380" d="M8 1434h340l340 -985h2l357 985h323l-584 -1434h-239z" />
<glyph unicode="W" horiz-adv-x="1933" d="M8 1434h328l235 -918h4l256 918h275l246 -918h4l241 918h328l-412 -1434h-290l-260 942h-5l-268 -942h-280z" />
<glyph unicode="X" horiz-adv-x="1449" d="M2 0l528 721l-512 713h385l330 -471l334 471h367l-516 -701l530 -733h-385l-346 489l-346 -489h-369z" />
<glyph unicode="Y" horiz-adv-x="1245" d="M8 1434h365l248 -516h4l270 516h342l-479 -842v-592h-293v600z" />
<glyph unicode="Z" horiz-adv-x="1150" d="M68 0v156l604 1030h-588v248h985v-150l-606 -1036h655v-248h-1050z" />
<glyph unicode="[" horiz-adv-x="675" d="M141 -330v1860h516v-232h-247v-1396h247v-232h-516z" />
<glyph unicode="\" horiz-adv-x="829" d="M0 1481l236 92l593 -1602l-235 -94z" />
<glyph unicode="]" horiz-adv-x="677" d="M18 -98h248v1396h-248v232h517v-1860h-517v232z" />
<glyph unicode="^" d="M133 676l307 749h246l307 -749h-266l-164 387l-164 -387h-266z" />
<glyph unicode="_" d="M0 -250h1126v-203h-1126v203z" />
<glyph unicode="`" horiz-adv-x="737" d="M49 1536l197 156l272 -381l-168 -127z" />
<glyph unicode="a" horiz-adv-x="1177" d="M92 317q0 125 74 207t173 112t222 30q88 0 195 -23v16q0 217 -213 218q-145 0 -326 -95l-78 209q225 111 463 111q219 0 332 -120t113 -335v-647h-252l-23 92q-94 -117 -293 -117q-160 0 -273.5 92.5t-113.5 249.5zM377 322q0 -68 48 -106t116 -38q113 0 215 92v199 q-84 18 -148 18q-94 0 -162.5 -39.5t-68.5 -125.5z" />
<glyph unicode="b" horiz-adv-x="1318" d="M141 0v1536h291v-571q53 70 141.5 103.5t176.5 33.5q213 0 357 -165t144 -402q0 -231 -144 -395.5t-359 -164.5q-96 0 -188.5 38t-145.5 118l-21 -131h-252zM432 342q96 -117 250 -117q131 0 201.5 95.5t70.5 222.5t-73.5 218t-194.5 91q-168 0 -254 -143v-367z" />
<glyph unicode="c" horiz-adv-x="1046" d="M68 539q0 238 156.5 400.5t398.5 162.5q217 0 378 -133l-149 -203q-92 86 -209 86q-121 0 -199.5 -91t-78.5 -222q0 -135 78.5 -224.5t195.5 -89.5q123 0 207 82l155 -198q-150 -133 -387 -134q-240 0 -393 157t-153 407z" />
<glyph unicode="d" horiz-adv-x="1318" d="M68 543q0 231 144 395t361 164q199 0 314 -129v563h291v-1536h-252l-25 133q-53 -82 -144 -120t-188 -38q-213 0 -357 166t-144 402zM365 535q0 -125 74.5 -217.5t193.5 -92.5q170 1 254 142v368q-100 117 -250 117q-131 0 -201.5 -95t-70.5 -222z" />
<glyph unicode="e" horiz-adv-x="1204" d="M68 526.5q0 243.5 157.5 409.5t388.5 166q225 0 373 -141.5t148 -356.5q-1 -61 -15 -137h-758q16 -115 87 -186.5t184 -71.5q98 0 161.5 39t118.5 121l191 -129q-94 -137 -208 -201t-284 -64q-244 0 -394 154t-150 397.5zM377 666h461q-4 96 -64.5 152t-150.5 56h-2 q-191 0 -244 -208z" />
<glyph unicode="f" horiz-adv-x="733" d="M55 836v241h117v86q0 193 78 287q88 111 303 111q135 -1 268 -62l-90 -223q-68 35 -149 35q-63 0 -90 -33q-29 -39 -29 -131v-70h268v-241h-268v-836h-291v836h-117z" />
<glyph unicode="g" horiz-adv-x="1310" d="M68 555q0 229 144 388t361 159q92 0 183.5 -37t144.5 -115l25 127h252v-1020q0 -174 -68 -286q-68 -119 -193.5 -177.5t-281.5 -58.5q-274 0 -498 148l107 239q88 -66 192.5 -101.5t188.5 -35.5q119 0 190.5 64.5t71.5 189.5v98q-106 -137 -318 -137q-213 0 -357 161 t-144 394zM365 547q0 -123 73.5 -210t194.5 -87q170 0 254 141v344q-100 117 -250 117q-131 0 -201.5 -91t-70.5 -214z" />
<glyph unicode="h" horiz-adv-x="1265" d="M141 0v1536h291v-586q125 152 318 152q176 0 286 -141q96 -125 97 -402v-559h-291v545q0 166 -33 231q-39 76 -143 76q-66 0 -130.5 -37t-103.5 -100v-715h-291z" />
<glyph unicode="i" horiz-adv-x="573" d="M141 0v1077h291v-1077h-291zM141 1227v248h291v-248h-291z" />
<glyph unicode="j" horiz-adv-x="585" d="M-158 -420l78 232q59 -27 125 -27q68 0 88.5 41t20.5 123v1128h290v-1153q0 -174 -69 -266q-88 -123 -299 -123q-121 0 -234 45zM154 1227v248h290v-248h-290z" />
<glyph unicode="k" horiz-adv-x="1136" d="M141 0v1536h291v-897h4l348 438h332l-385 -450l410 -627h-357l-247 399l-105 -120v-279h-291z" />
<glyph unicode="l" horiz-adv-x="573" d="M141 0v1536h291v-1536h-291z" />
<glyph unicode="m" horiz-adv-x="1900" d="M141 0v1077h252l21 -131q123 156 311 156q92 0 178 -50.5t127 -129.5q127 180 359 180q174 0 282 -139q96 -125 96 -404v-559h-290v545q0 166 -33 231q-39 76 -144 76q-127 0 -210 -123q10 -88 10 -170v-559h-291v545q0 172 -33 233q-39 74 -137 74q-115 0 -207 -107 v-745h-291z" />
<glyph unicode="n" horiz-adv-x="1265" d="M141 0v1077h252l23 -147q123 172 334 172q176 0 286 -141q96 -125 97 -402v-559h-291v545q0 166 -33 231q-39 76 -143 76q-66 0 -130.5 -37t-103.5 -100v-715h-291z" />
<glyph unicode="o" horiz-adv-x="1263" d="M68 538.5q0 239.5 159.5 401.5t405.5 162q244 0 403.5 -162t159.5 -401.5t-159.5 -401.5t-403.5 -162q-246 0 -405.5 162t-159.5 401.5zM365 539q0 -133 74.5 -223.5t193.5 -90.5t192.5 89t73.5 224.5t-73.5 224.5t-192.5 89t-193.5 -90t-74.5 -223z" />
<glyph unicode="p" horiz-adv-x="1318" d="M141 -512v1589h252l23 -133q53 80 146 119t188 39q213 0 357 -165t144 -402q0 -231 -144 -395.5t-359 -164.5q-203 0 -316 129v-616h-291zM432 342q96 -117 250 -117q131 0 201.5 95.5t70.5 222.5t-73.5 218t-194.5 91q-168 0 -254 -143v-367z" />
<glyph unicode="q" horiz-adv-x="1318" d="M68 543q0 231 144 395t361 164q92 0 183.5 -37t144.5 -115l25 127h252v-1589h-291v625q-106 -137 -318 -138q-213 0 -357 166t-144 402zM365 535q0 -125 74.5 -217.5t193.5 -92.5q170 0 254 142v368q-100 117 -250 117q-131 0 -201.5 -95t-70.5 -222z" />
<glyph unicode="r" horiz-adv-x="765" d="M141 0v1077h252l23 -143q102 168 252 168q72 0 139 -25l-70 -254q-47 25 -102 25q-131 0 -203 -119v-729h-291z" />
<glyph unicode="s" horiz-adv-x="985" d="M47 160l166 172q68 -66 124 -96.5t130 -30.5q51 0 94 24.5t43 69.5q0 12 -3 23.5t-11 21.5t-15.5 18.5t-21.5 17.5t-24.5 15t-30 15.5t-30.5 14.5t-33.5 14.5t-35.5 15.5q-125 53 -197.5 121.5t-72.5 195.5q0 156 113.5 243t271.5 87q223 0 373 -141l-160 -177 q-102 90 -213 90q-43 0 -73.5 -22.5t-30.5 -58.5q0 -45 42 -75t128 -65q59 -25 87.5 -38t81 -43.5t78 -61.5t47 -80t21.5 -108q0 -168 -122 -257.5t-292 -89.5q-250 0 -434 185z" />
<glyph unicode="t" horiz-adv-x="774" d="M25 836v241h129l45 238h245v-238h275v-241h-275v-418q0 -61 5 -92q12 -102 94 -103q55 0 116 31l91 -215q-109 -63 -256 -64q-123 0 -206 62.5t-114 169.5q-20 66 -20 180v449h-129z" />
<glyph unicode="u" horiz-adv-x="1265" d="M133 518v559h291v-545q0 -166 33 -231q39 -76 143 -76q66 0 130.5 37t103.5 100v715h290v-1077h-252l-22 147q-123 -172 -334 -172q-176 0 -287 142q-96 125 -96 401z" />
<glyph unicode="v" horiz-adv-x="1103" d="M10 1077h322l217 -663h4l219 663h324l-443 -1077h-237z" />
<glyph unicode="w" horiz-adv-x="1591" d="M10 1077h309l160 -667h4l187 667h256l176 -665h6l170 665h303l-309 -1077h-307l-170 616h-4l-173 -616h-313z" />
<glyph unicode="x" horiz-adv-x="1222" d="M10 0l426 549l-389 528h371l213 -311l217 311h364l-415 -536l403 -541h-373l-221 324l-229 -324h-367z" />
<glyph unicode="y" horiz-adv-x="1087" d="M6 1077h318l217 -641h4l221 641h315l-606 -1571l-260 101l172 456z" />
<glyph unicode="z" horiz-adv-x="989" d="M80 836v241h815v-133l-414 -702h449v-242h-828v135l410 701h-432z" />
<glyph unicode="{" horiz-adv-x="704" d="M14 512l4 219q152 37 152 252v145q0 186 111.5 305t293.5 119q37 0 111 -6v-223h-80q-168 0 -168 -244v-149q0 -217 -129 -307q61 -45 95 -129t34 -181v-188q0 -246 172 -246h76v-223q-74 -8 -111 -8q-182 0 -293.5 119.5t-111.5 306.5v211q0 88 -39 150.5t-117 76.5z " />
<glyph unicode="|" horiz-adv-x="663" d="M201 -348v2105h262v-2105h-262z" />
<glyph unicode="}" horiz-adv-x="704" d="M18 -123h80q168 0 168 244v192q0 217 129 308q-61 45 -95 129t-34 180v145q0 246 -172 246h-76v223q74 8 111 8q182 0 294 -119.5t112 -306.5v-168q0 -88 38.5 -150.5t116.5 -76.5l-4 -219q-152 -37 -151 -252v-188q0 -186 -112 -305t-294 -119q-37 0 -111 6v223z" />
<glyph unicode="~" d="M37 573q0 137 83 223.5t220 86.5q98 0 182 -46t148.5 -91.5t115.5 -45.5q35 0 57.5 24t22.5 62q0 16 -2 25l221 10q4 -20 5 -39q0 -137 -83 -223t-221 -86q-98 0 -182 46t-148.5 91t-115.5 45q-35 0 -56.5 -23.5t-21.5 -62.5q0 -16 2 -24l-223 -10q-4 20 -4 38z" />
<glyph unicode="&#xa1;" horiz-adv-x="669" d="M174 -100l23 688h276l23 -688v-256h-322v256zM178 772v305h314v-305h-314z" />
<glyph unicode="&#xa2;" d="M115 618q0 215 129 371t338 187v186h172v-186q164 -20 293 -125l-148 -205q-98 88 -209 88q-121 0 -200.5 -92t-79.5 -224q0 -133 79.5 -223t194.5 -90q123 0 207 82l156 -199q-119 -104 -293 -127v-184h-172v182q-209 29 -338 180.5t-129 378.5z" />
<glyph unicode="&#xa3;" d="M147 0v248h111v362h-111v246h111v59q0 205 125 337t319 132q184 0 351 -98l-113 -221q-92 74 -205 74q-90 0 -141 -64.5t-51 -181.5v-37h262v-246h-262v-362h497v-248h-893z" />
<glyph unicode="&#xa4;" d="M55 328l119 116q-59 101 -59 224q0 115 59 223l-119 119l166 166l121 -119q102 59 221 59q115 0 221 -59l121 119l166 -166l-121 -119q61 -106 61.5 -223t-59.5 -224l119 -116l-166 -166l-119 119q-98 -61 -223 -61.5t-225 59.5l-117 -117zM332 667.5q0 -96.5 67.5 -165 t163.5 -68.5t164 68.5t68 165.5q0 94 -68 162.5t-164 68.5t-163.5 -67.5t-67.5 -164z" />
<glyph unicode="&#xa5;" d="M-16 1362h327l258 -469h4l242 469h326l-367 -643h258v-193h-332v-114h332v-191h-332v-221h-284v221h-332v191h332v114h-332v193h260z" />
<glyph unicode="&#xa6;" horiz-adv-x="663" d="M201 -395v813h262v-813h-262zM201 723v813h262v-813h-262z" />
<glyph unicode="&#xa7;" d="M53 -96l172 186q141 -139 314 -139q70 0 123 29.5t53 87.5q0 31 -16.5 55t-55.5 42.5t-68.5 30t-94 30t-93.5 28.5q-141 47 -223 118.5t-82 205.5q0 201 174 296q-111 94 -111 234q0 160 121 254t289 94q248 0 414 -145l-170 -176q-104 92 -242 92q-53 0 -94 -25.5 t-41 -73.5q0 -14 4 -27.5t15.5 -24.5t21.5 -20t29.5 -19.5t34 -17.5t41 -16.5t43 -14.5t48 -15t48.5 -17q78 -27 130 -51t109.5 -65t87 -100.5t29.5 -137.5q0 -164 -172 -285q111 -86 110 -227q0 -178 -130 -277.5t-320 -99.5q-285 0 -498 191zM371 608q0 -53 50 -84.5 t159 -66.5q24 -9 77 -25q117 49 117 150q0 14 -4 26.5t-14.5 23.5t-20.5 19t-29.5 18.5t-34 17.5t-42 17.5t-45 16.5t-51 17.5t-52.5 17.5q-111 -43 -110 -148z" />
<glyph unicode="&#xa8;" horiz-adv-x="737" d="M-25 1227v248h293v-248h-293zM469 1227v248h293v-248h-293z" />
<glyph unicode="&#xa9;" horiz-adv-x="1636" d="M104 682q0 291 214 499t511 208t511 -208t214 -499t-214 -499t-511 -208t-511 208t-214 499zM326 682q0 -209 147.5 -358.5t356 -149.5t356 149.5t147.5 358.5t-147.5 358.5t-356 149.5t-356 -149.5t-147.5 -358.5zM463 678q0 158 111.5 265.5t273.5 107.5q116 0 231 -80 l-102 -142q-57 45 -129 45q-80 0 -130 -56t-50 -140q0 -92 46 -145.5t134 -53.5q68 0 133 53l106 -133q-104 -94 -239 -94q-168 0 -276.5 102.5t-108.5 270.5z" />
<glyph unicode="&#xaa;" horiz-adv-x="796" d="M63 991q0 121 89.5 175.5t220.5 54.5q47 0 119 -11v9q-6 121 -140 120q-104 0 -205 -65l-53 153q156 76 301 76q141 0 224 -74.5t83 -224.5v-413h-184l-12 55q-66 -72 -193 -72q-100 0 -175 57.5t-75 159.5zM281 1001q0 -80 96 -79q66 0 115 43v125q-39 8 -74 8 q-57 0 -97 -23.5t-40 -73.5z" />
<glyph unicode="&#xab;" horiz-adv-x="1206" d="M100 430v236l330 344l158 -215l-258 -248l258 -246l-158 -217zM616 430v236l330 344l160 -215l-260 -248l260 -246l-160 -217z" />
<glyph unicode="&#xac;" d="M37 647v246h1050v-649h-245v403h-805z" />
<glyph unicode="&#xad;" horiz-adv-x="915" d="M168 473v242h580v-242h-580z" />
<glyph unicode="&#xae;" horiz-adv-x="1177" d="M88 973q0 205 147.5 350t354.5 145t354.5 -145t147.5 -350t-147.5 -349.5t-354.5 -144.5t-354.5 144.5t-147.5 349.5zM252 973q0 -143 98.5 -243.5t239.5 -100.5t239.5 100t98.5 244q0 145 -98.5 245.5t-239.5 100.5t-239.5 -100.5t-98.5 -245.5zM414 739v480h151 q84 0 141.5 -38t57.5 -114q0 -96 -88 -135l143 -193h-164l-100 156h-8v-156h-133zM547 1014q82 0 82 47q0 29 -17.5 39t-64.5 10v-96z" />
<glyph unicode="&#xaf;" horiz-adv-x="737" d="M18 1247v201h701v-201h-701z" />
<glyph unicode="&#xb0;" horiz-adv-x="946" d="M135 1089.5q0 139.5 96.5 235.5t235.5 96t235.5 -96t96.5 -235.5t-96.5 -235.5t-235.5 -96t-235.5 96t-96.5 235.5zM334 1089.5q0 -57.5 38 -97.5t95 -40t95 40t38 97.5t-38 97.5t-95 40t-95 -40t-38 -97.5z" />
<glyph unicode="&#xb1;" d="M37 0v246h1050v-246h-1050zM37 754v245h401v402h246v-402h403v-245h-403v-404h-246v404h-401z" />
<glyph unicode="&#xb2;" horiz-adv-x="677" d="M39 1339q4 113 85 180.5t198 67.5q123 0 211 -63.5t88 -169.5q0 -117 -82 -219q-102 -123 -228 -226h334v-157h-592v151q172 150 287 289q66 90 66 151q0 39 -20.5 60.5t-55.5 21.5q-37 0 -57.5 -31.5t-20.5 -80.5z" />
<glyph unicode="&#xb3;" horiz-adv-x="710" d="M29 915l164 76q45 -92 133 -92q51 0 82.5 27.5t31.5 68.5q0 51 -40 79t-101 28q-21 0 -66 -4v147q10 -2 31 -2q31 0 64 8q80 20 80 86q0 39 -26 63.5t-69 24.5q-80 0 -106 -79l-164 73q31 80 104.5 124t167.5 44q127 0 216.5 -59.5t89.5 -157.5q0 -121 -117 -180 q80 -25 117.5 -82t37.5 -125q0 -111 -92 -178.5t-227 -67.5q-104 0 -190.5 46t-120.5 132z" />
<glyph unicode="&#xb4;" horiz-adv-x="737" d="M217 1311l272 381l197 -156l-301 -352z" />
<glyph unicode="&#xb5;" d="M68 -512v1589h290v-551q0 -68 4.5 -107.5t19.5 -91t53 -77t100 -25.5q66 0 129 36t104 99v717h291v-1077h-252l-23 147q-125 -172 -333 -172q-45 0 -93 15v-502h-290z" />
<glyph unicode="&#xb6;" d="M57 989q0 117 48.5 206t128 139t170 75t186.5 25h115v-1792h-246v911q-174 31 -288 138.5t-114 297.5zM301 989q0 -86 46 -138t112 -56v389q-66 -4 -112 -56.5t-46 -138.5zM801 -358v1792h248v-1792h-248z" />
<glyph unicode="&#xb7;" horiz-adv-x="512" d="M98 502v305h314v-305h-314z" />
<glyph unicode="&#xb8;" horiz-adv-x="819" d="M135 -188l101 231l139 -27l-56 -141h3q41 31 96 31q76 0 133 -59.5t57 -147.5t-67.5 -156.5t-165.5 -68.5q-156 0 -238 143l142 68q25 -66 81 -66q33 0 54.5 21.5t21.5 54.5t-22.5 57.5t-53.5 24.5q-49 0 -75 -41z" />
<glyph unicode="&#xb9;" horiz-adv-x="468" d="M51 1300v175q63 31 187 98h139v-821h-211v596q-41 -20 -115 -48z" />
<glyph unicode="&#xba;" horiz-adv-x="845" d="M47 1138.5q0 155.5 105.5 260t269.5 104.5t269.5 -104.5t105.5 -260t-105.5 -260t-269.5 -104.5t-269.5 104.5t-105.5 260zM264 1139q0 -88 43 -143.5t115 -55.5t115 55.5t43 143.5t-43 143t-115 55t-115 -55t-43 -143z" />
<glyph unicode="&#xbb;" horiz-adv-x="1206" d="M100 301l258 246l-258 246l158 211l330 -338v-238l-330 -338zM616 301l261 246l-261 246l160 211l330 -338v-238l-330 -338z" />
<glyph unicode="&#xbc;" horiz-adv-x="1642" d="M176 1167v183q111 55 164 84h154v-742h-201v529q-59 -33 -117 -54zM193 72l1019 1398l146 -108l-1020 -1399zM868 162v166q129 164 310 411h204v-417h97v-160h-97v-162h-194v162h-320zM1057 322h131v186q-59 -92 -131 -186z" />
<glyph unicode="&#xbd;" horiz-adv-x="1695" d="M176 1167v183q111 55 164 84h154v-742h-201v529q-59 -33 -117 -54zM193 72l1019 1398l146 -108l-1020 -1399zM979 539q6 102 81 159.5t185 57.5q109 0 187.5 -58.5t78.5 -154.5q0 -98 -77 -201q-68 -82 -179 -178h277v-164h-541v139q162 135 260 258q59 70 59.5 135.5 t-69.5 65.5q-33 0 -52.5 -24.5t-19.5 -65.5z" />
<glyph unicode="&#xbe;" horiz-adv-x="1802" d="M164 840l158 71q29 -76 112 -75q37 0 64.5 20.5t27.5 58.5q0 88 -125 89q-24 -1 -49 -7l-2 146h17q43 0 63 6q63 16 64 74q0 31 -20.5 50t-59.5 19q-68 0 -80 -67l-158 73q27 72 94.5 112t149.5 40q111 0 190.5 -54.5t79.5 -144.5q0 -47 -27.5 -92t-70.5 -67 q59 -20 96 -72.5t37 -114.5q0 -106 -84 -166.5t-199 -60.5q-92 0 -167.5 42t-110.5 120zM352 72l1022 1398l146 -108l-1022 -1399zM1028 162v166q129 164 309 411h205v-417h96v-160h-96v-162h-194v162h-320zM1217 322h131v186q-59 -92 -131 -186z" />
<glyph unicode="&#xbf;" horiz-adv-x="1116" d="M123 10q0 88 21.5 154.5t68.5 115t91 79t116 67.5v162h297v-312q-80 -27 -121 -44t-93 -47.5t-74.5 -71.5t-22.5 -97q0 -66 39.5 -110.5t109.5 -44.5q72 0 112 46t40 128v43h284v-35q0 -188 -124 -306t-312 -118q-190 0 -311 121t-121 270zM412 772v305h313v-305h-313z " />
<glyph unicode="&#xc0;" horiz-adv-x="1411" d="M25 0l585 1434h238l538 -1434h-337l-93 266h-510l-96 -266h-325zM356 1763l152 199l352 -295l-131 -166zM532 506h342l-165 481h-2z" />
<glyph unicode="&#xc1;" horiz-adv-x="1411" d="M25 0l585 1434h238l538 -1434h-337l-93 266h-510l-96 -266h-325zM524 1667l353 295l151 -199l-373 -262zM532 506h342l-165 481h-2z" />
<glyph unicode="&#xc2;" horiz-adv-x="1411" d="M25 0l585 1434h238l538 -1434h-337l-93 266h-510l-96 -266h-325zM332 1626l239 305h320l231 -305l-168 -123l-227 258l-229 -258zM532 506h342l-165 481h-2z" />
<glyph unicode="&#xc3;" horiz-adv-x="1411" d="M25 0l585 1434h238l538 -1434h-337l-93 266h-510l-96 -266h-325zM371 1630q0 94 65.5 152.5t171.5 58.5q74 0 174.5 -52t122.5 -52q20 0 35.5 12t15.5 35q0 10 -2 14l168 19q12 -39 13 -80q0 -94 -64.5 -152.5t-171.5 -58.5q-76 0 -175 52t-124 52q-47 0 -51 -47 q0 -10 2 -14l-166 -19q-14 47 -14 80zM532 506h342l-165 481h-2z" />
<glyph unicode="&#xc4;" horiz-adv-x="1411" d="M25 0l585 1434h238l538 -1434h-337l-93 266h-510l-96 -266h-325zM293 1561v245h305v-245h-305zM532 506h342l-165 481h-2zM860 1561v245h305v-245h-305z" />
<glyph unicode="&#xc5;" horiz-adv-x="1411" d="M25 0l585 1434h238l538 -1434h-337l-93 266h-510l-96 -266h-325zM500 1700q0 96 67.5 163.5t163.5 67.5t164 -67.5t68 -163.5t-68 -164t-164 -68t-163.5 68t-67.5 164zM532 506h342l-165 481h-2zM637 1700q0 -41 27.5 -67.5t66.5 -26.5t66.5 26.5t27.5 67.5t-27.5 67.5 t-66.5 26.5t-66.5 -26.5t-27.5 -67.5z" />
<glyph unicode="&#xc6;" horiz-adv-x="2066" d="M-18 0l1056 1434h920v-248h-625v-324h625v-248h-625v-366h625v-248h-920v268h-506l-180 -268h-370zM694 508h344v508z" />
<glyph unicode="&#xc7;" horiz-adv-x="1382" d="M100 717q0 313 223.5 527t540.5 214q218 0 441 -139l-142 -227q-145 111 -299 110q-195 0 -322.5 -140t-127.5 -345q0 -217 120.5 -351.5t329.5 -134.5q168 0 305 119l164 -213q-211 -162 -481 -162q-51 0 -100 7l-41 -107h2q41 31 96 31q78 0 134 -59.5t56 -147.5 t-68.5 -156.5t-166.5 -68.5q-156 0 -236 143l142 68q25 -66 82 -66q33 0 54 21.5t21 54.5t-21.5 57.5t-51.5 24.5q-51 0 -78 -41l-150 78l88 194q-233 68 -373.5 258.5t-140.5 450.5z" />
<glyph unicode="&#xc8;" horiz-adv-x="1187" d="M160 0v1434h919v-248h-626v-324h626v-248h-626v-366h626v-248h-919zM342 1763l152 199l352 -295l-131 -166z" />
<glyph unicode="&#xc9;" horiz-adv-x="1187" d="M160 0v1434h919v-248h-626v-324h626v-248h-626v-366h626v-248h-919zM455 1667l352 295l151 -199l-372 -262z" />
<glyph unicode="&#xca;" horiz-adv-x="1187" d="M160 0v1434h919v-248h-626v-324h626v-248h-626v-366h626v-248h-919zM236 1626l239 305h320l231 -305l-168 -123l-227 258l-230 -258z" />
<glyph unicode="&#xcb;" horiz-adv-x="1187" d="M160 0v1434h919v-248h-626v-324h626v-248h-626v-366h626v-248h-919zM240 1561v245h303v-245h-303zM723 1561v245h305v-245h-305z" />
<glyph unicode="&#xcc;" horiz-adv-x="612" d="M-63 1763l151 199l352 -295l-131 -166zM160 0v1434h293v-1434h-293z" />
<glyph unicode="&#xcd;" horiz-adv-x="612" d="M160 0v1434h293v-1434h-293zM174 1667l352 295l152 -199l-373 -262z" />
<glyph unicode="&#xce;" horiz-adv-x="612" d="M-90 1626l240 305h319l231 -305l-168 -123l-227 258l-229 -258zM160 0v1434h293v-1434h-293z" />
<glyph unicode="&#xcf;" horiz-adv-x="612" d="M-84 1561v245h305v-245h-305zM160 0v1434h293v-1434h-293zM391 1561v245h305v-245h-305z" />
<glyph unicode="&#xd0;" horiz-adv-x="1464" d="M23 641v201h137v592h418q145 0 279 -40t251 -120t186.5 -222.5t69.5 -328.5q0 -190 -69.5 -334.5t-187.5 -226.5t-255 -122t-293 -40h-399v641h-137zM453 248h32q565 0 566 457q0 236 -132.5 358.5t-375.5 122.5h-90v-344h231v-201h-231v-393z" />
<glyph unicode="&#xd1;" horiz-adv-x="1531" d="M160 0v1434h258l663 -899v899h293v-1434h-264l-657 897v-897h-293zM410 1630q0 94 65.5 152.5t171.5 58.5q74 0 174.5 -52t122.5 -52q20 0 35.5 12t15.5 35q0 10 -2 14l168 19q12 -39 13 -80q0 -94 -65 -152.5t-171 -58.5q-76 0 -175 52t-124 52q-47 0 -51 -47 q0 -10 2 -14l-166 -19q-14 47 -14 80z" />
<glyph unicode="&#xd2;" horiz-adv-x="1701" d="M100 717q0 309 217.5 525t534.5 216q315 0 532.5 -216t217.5 -525t-217.5 -525.5t-532.5 -216.5q-317 0 -534.5 216.5t-217.5 525.5zM414 717q0 -207 125 -346.5t313 -139.5t312 140.5t124 345.5t-124 345t-312 140t-313 -139t-125 -346zM487 1763l152 199l352 -295 l-131 -166z" />
<glyph unicode="&#xd3;" horiz-adv-x="1701" d="M100 717q0 309 217.5 525t534.5 216q315 0 532.5 -216t217.5 -525t-217.5 -525.5t-532.5 -216.5q-317 0 -534.5 216.5t-217.5 525.5zM414 717q0 -207 125 -346.5t313 -139.5t312 140.5t124 345.5t-124 345t-312 140t-313 -139t-125 -346zM719 1667l352 295l152 -199 l-373 -262z" />
<glyph unicode="&#xd4;" horiz-adv-x="1701" d="M100 717q0 309 217.5 525t534.5 216q315 0 532.5 -216t217.5 -525t-217.5 -525.5t-532.5 -216.5q-317 0 -534.5 216.5t-217.5 525.5zM414 717q0 -207 125 -346.5t313 -139.5t312 140.5t124 345.5t-124 345t-312 140t-313 -139t-125 -346zM459 1626l239 305h320l231 -305 l-168 -123l-227 258l-229 -258z" />
<glyph unicode="&#xd5;" horiz-adv-x="1701" d="M100 717q0 309 217.5 525t534.5 216q315 0 532.5 -216t217.5 -525t-217.5 -525.5t-532.5 -216.5q-317 0 -534.5 216.5t-217.5 525.5zM414 717q0 -207 125 -346.5t313 -139.5t312 140.5t124 345.5t-124 345t-312 140t-313 -139t-125 -346zM508 1630q0 94 65.5 152.5 t171.5 58.5q74 0 174.5 -52t122.5 -52q20 0 36 12t16 35q0 10 -2 14l168 19q12 -39 12 -80q0 -94 -64.5 -152.5t-171.5 -58.5q-76 0 -175 52t-124 52q-47 0 -51 -47q0 -10 2 -14l-166 -19q-14 47 -14 80z" />
<glyph unicode="&#xd6;" horiz-adv-x="1701" d="M100 717q0 309 217.5 525t534.5 216q315 0 532.5 -216t217.5 -525t-217.5 -525.5t-532.5 -216.5q-317 0 -534.5 216.5t-217.5 525.5zM414 717q0 -207 125 -346.5t313 -139.5t312 140.5t124 345.5t-124 345t-312 140t-313 -139t-125 -346zM416 1561v245h305v-245h-305z M983 1561v245h305v-245h-305z" />
<glyph unicode="&#xd7;" d="M113 362l276 275l-276 276l176 174l272 -274l277 274l174 -174l-275 -274l277 -277l-174 -174l-279 275l-274 -275z" />
<glyph unicode="&#xd8;" horiz-adv-x="1701" d="M100 717q0 309 217.5 525t534.5 216q160 0 311 -65l64 94l190 -125l-61 -92q246 -223 246 -553q0 -309 -217.5 -525.5t-532.5 -216.5q-172 0 -322 70l-69 -102l-191 125l70 102q-240 219 -240 547zM414 717q0 -174 90 -303l510 755q-78 33 -162 33q-188 0 -313 -139 t-125 -346zM680 268q80 -37 172 -37q188 0 312 140.5t124 345.5q0 178 -96 309z" />
<glyph unicode="&#xd9;" horiz-adv-x="1466" d="M156 676v758h293v-797q0 -201 75.5 -303.5t208.5 -102.5t209 102.5t76 303.5v797h293v-758q0 -346 -140.5 -523.5t-441.5 -177.5q-573 0 -573 701zM362 1763l152 199l352 -295l-131 -166z" />
<glyph unicode="&#xda;" horiz-adv-x="1466" d="M156 676v758h293v-797q0 -201 75.5 -303.5t208.5 -102.5t209 102.5t76 303.5v797h293v-758q0 -346 -140.5 -523.5t-441.5 -177.5q-573 0 -573 701zM567 1667l353 295l151 -199l-373 -262z" />
<glyph unicode="&#xdb;" horiz-adv-x="1466" d="M156 676v758h293v-797q0 -201 75.5 -303.5t208.5 -102.5t209 102.5t76 303.5v797h293v-758q0 -346 -140.5 -523.5t-441.5 -177.5q-573 0 -573 701zM344 1626l240 305h319l232 -305l-168 -123l-228 258l-229 -258z" />
<glyph unicode="&#xdc;" horiz-adv-x="1466" d="M156 676v758h293v-797q0 -201 75.5 -303.5t208.5 -102.5t209 102.5t76 303.5v797h293v-758q0 -346 -140.5 -523.5t-441.5 -177.5q-573 0 -573 701zM299 1561v245h305v-245h-305zM866 1561v245h305v-245h-305z" />
<glyph unicode="&#xdd;" horiz-adv-x="1245" d="M8 1434h365l248 -516h4l270 516h342l-479 -842v-592h-293v600zM469 1667l352 295l152 -199l-373 -262z" />
<glyph unicode="&#xde;" horiz-adv-x="1216" d="M160 -14v1448h293v-263h163q96 0 187.5 -24.5t171.5 -74.5t129 -139t49 -206q0 -119 -48 -209t-129 -140t-171 -74.5t-189 -24.5h-163v-293h-293zM453 526h116q273 0 273 195q0 94 -63.5 148.5t-170.5 54.5h-155v-398z" />
<glyph unicode="&#xdf;" horiz-adv-x="1312" d="M135 0v1094q0 217 143.5 342t354.5 125q201 0 342 -112t141 -304q0 -184 -139 -287q123 -45 192.5 -153.5t69.5 -249.5q0 -209 -147.5 -344.5t-356.5 -135.5q-104 0 -198 41l73 230q53 -27 115 -27q109 0 168 65.5t59 172.5q0 123 -76.5 191.5t-199.5 68.5q-53 0 -103 -8 v227q20 -2 58 -2q78 0 139 54t61 142q0 82 -54 134.5t-138 52.5q-221 0 -221 -260v-1057h-283z" />
<glyph unicode="&#xe0;" horiz-adv-x="1177" d="M92 317q0 125 74 207t173 112t222 30q88 0 195 -23v16q0 217 -213 218q-145 0 -326 -95l-78 209q225 111 463 111q219 0 332 -120t113 -335v-647h-252l-23 92q-94 -117 -293 -117q-160 0 -273.5 92.5t-113.5 249.5zM256 1536l197 156l272 -381l-168 -127zM377 322 q0 -68 48 -106t116 -38q113 0 215 92v199q-84 18 -148 18q-94 0 -162.5 -39.5t-68.5 -125.5z" />
<glyph unicode="&#xe1;" horiz-adv-x="1177" d="M92 317q0 125 74 207t173 112t222 30q88 0 195 -23v16q0 217 -213 218q-145 0 -326 -95l-78 209q225 111 463 111q219 0 332 -120t113 -335v-647h-252l-23 92q-94 -117 -293 -117q-160 0 -273.5 92.5t-113.5 249.5zM377 322q0 -68 48 -106t116 -38q113 0 215 92v199 q-84 18 -148 18q-94 0 -162.5 -39.5t-68.5 -125.5zM473 1311l272 381l197 -156l-301 -352z" />
<glyph unicode="&#xe2;" horiz-adv-x="1177" d="M92 317q0 125 74 207t173 112t222 30q88 0 195 -23v16q0 217 -213 218q-145 0 -326 -95l-78 209q225 111 463 111q219 0 332 -120t113 -335v-647h-252l-23 92q-94 -117 -293 -117q-160 0 -273.5 92.5t-113.5 249.5zM199 1292l233 344h293l229 -344l-163 -98l-216 264 l-213 -264zM377 322q0 -68 48 -106t116 -38q113 0 215 92v199q-84 18 -148 18q-94 0 -162.5 -39.5t-68.5 -125.5z" />
<glyph unicode="&#xe3;" horiz-adv-x="1177" d="M92 317q0 125 74 207t173 112t222 30q88 0 195 -23v16q0 217 -213 218q-145 0 -326 -95l-78 209q225 111 463 111q219 0 332 -120t113 -335v-647h-252l-23 92q-94 -117 -293 -117q-160 0 -273.5 92.5t-113.5 249.5zM205 1292q0 94 64.5 152.5t170.5 58.5q76 0 176.5 -52 t122.5 -52q47 0 52 47q0 12 -3 14l166 19q12 -39 13 -78q0 -94 -64.5 -152.5t-171.5 -58.5q-76 0 -176 52t-123 52q-47 0 -51 -47q0 -12 2 -14l-166 -19q-12 39 -12 78zM377 322q0 -68 48 -106t116 -38q113 0 215 92v199q-84 18 -148 18q-94 0 -162.5 -39.5t-68.5 -125.5z " />
<glyph unicode="&#xe4;" horiz-adv-x="1177" d="M92 317q0 125 74 207t173 112t222 30q88 0 195 -23v16q0 217 -213 218q-145 0 -326 -95l-78 209q225 111 463 111q219 0 332 -120t113 -335v-647h-252l-23 92q-94 -117 -293 -117q-160 0 -273.5 92.5t-113.5 249.5zM184 1227v248h293v-248h-293zM377 322q0 -68 48 -106 t116 -38q113 0 215 92v199q-84 18 -148 18q-94 0 -162.5 -39.5t-68.5 -125.5zM678 1227v248h293v-248h-293z" />
<glyph unicode="&#xe5;" horiz-adv-x="1177" d="M92 317q0 125 74 207t173 112t222 30q88 0 195 -23v16q0 217 -213 218q-145 0 -326 -95l-78 209q225 111 463 111q219 0 332 -120t113 -335v-647h-252l-23 92q-94 -117 -293 -117q-160 0 -273.5 92.5t-113.5 249.5zM373 1411q0 96 67.5 163.5t163.5 67.5t164 -67.5 t68 -163.5t-68 -163.5t-164 -67.5t-163.5 67.5t-67.5 163.5zM377 322q0 -68 48 -106t116 -38q113 0 215 92v199q-84 18 -148 18q-94 0 -162.5 -39.5t-68.5 -125.5zM512 1411q0 -39 26.5 -65.5t65.5 -26.5t65.5 26.5t26.5 65.5t-26.5 65.5t-65.5 26.5t-65.5 -26.5 t-26.5 -65.5z" />
<glyph unicode="&#xe6;" horiz-adv-x="1886" d="M92 317q0 125 74 207t173 112t222 30q88 0 195 -23v16q0 217 -213 218q-145 0 -326 -95l-78 209q225 111 463 111q233 0 342 -139q145 139 352 139q225 0 373 -141.5t148 -356.5q-1 -61 -15 -137h-758q16 -115 87 -186.5t184 -71.5q98 0 161.5 39t118.5 121l191 -129 q-94 -137 -208 -201t-284 -64q-246 0 -399 158q-96 -92 -195.5 -125t-220.5 -33q-160 0 -273.5 92.5t-113.5 249.5zM377 322q0 -68 48 -106t116 -38q143 0 247 127q-27 68 -36 164q-80 18 -144 18q-94 0 -162.5 -39.5t-68.5 -125.5zM1059 666h461q-4 96 -64.5 152t-150.5 56 q-193 1 -246 -208z" />
<glyph unicode="&#xe7;" horiz-adv-x="1046" d="M68 539q0 238 156.5 400.5t398.5 162.5q217 0 378 -133l-149 -203q-92 86 -209 86q-121 0 -199.5 -91t-78.5 -222q0 -135 78.5 -224.5t195.5 -89.5q123 0 207 82l155 -198q-150 -133 -387 -134q-33 0 -47 2l-39 -102h2q41 31 95 31q76 0 134 -59.5t58 -147.5 t-68.5 -156.5t-166.5 -68.5q-156 0 -236 143l139 68q27 -66 82 -66q35 0 56.5 21.5t21.5 54.5t-22.5 57.5t-53.5 24.5q-51 0 -75 -41l-152 76l84 192q-164 55 -261 197.5t-97 337.5z" />
<glyph unicode="&#xe8;" horiz-adv-x="1204" d="M68 526.5q0 243.5 157.5 409.5t388.5 166q225 0 373 -141.5t148 -356.5q-1 -61 -15 -137h-758q16 -115 87 -186.5t184 -71.5q98 0 161.5 39t118.5 121l191 -129q-94 -137 -208 -201t-284 -64q-244 0 -394 154t-150 397.5zM270 1536l197 156l272 -381l-168 -127zM377 666 h461q-4 96 -64.5 152t-150.5 56q-193 1 -246 -208z" />
<glyph unicode="&#xe9;" horiz-adv-x="1204" d="M68 526.5q0 243.5 157.5 409.5t388.5 166q225 0 373 -141.5t148 -356.5q-1 -61 -15 -137h-758q16 -115 87 -186.5t184 -71.5q98 0 161.5 39t118.5 121l191 -129q-94 -137 -208 -201t-284 -64q-244 0 -394 154t-150 397.5zM377 666h461q-4 96 -64.5 152t-150.5 56 q-193 1 -246 -208zM528 1311l273 381l196 -156l-301 -352z" />
<glyph unicode="&#xea;" horiz-adv-x="1204" d="M68 526.5q0 243.5 157.5 409.5t388.5 166q225 0 373 -141.5t148 -356.5q-1 -61 -15 -137h-758q16 -115 87 -186.5t184 -71.5q98 0 161.5 39t118.5 121l191 -129q-94 -137 -208 -201t-284 -64q-244 0 -394 154t-150 397.5zM242 1292l233 344h293l229 -344l-163 -98 l-216 264l-212 -264zM377 666h461q-4 96 -64.5 152t-150.5 56q-193 1 -246 -208z" />
<glyph unicode="&#xeb;" horiz-adv-x="1204" d="M68 526.5q0 243.5 157.5 409.5t388.5 166q225 0 373 -141.5t148 -356.5q-1 -61 -15 -137h-758q16 -115 87 -186.5t184 -71.5q98 0 161.5 39t118.5 121l191 -129q-94 -137 -208 -201t-284 -64q-244 0 -394 154t-150 397.5zM225 1227v248h293v-248h-293zM377 666h461 q-4 96 -64.5 152t-150.5 56q-193 1 -246 -208zM719 1227v248h293v-248h-293z" />
<glyph unicode="&#xec;" horiz-adv-x="573" d="M-68 1536l197 156l272 -381l-168 -127zM141 0v1077h291v-1077h-291z" />
<glyph unicode="&#xed;" horiz-adv-x="573" d="M141 0v1077h291v-1077h-291zM170 1311l272 381l197 -156l-301 -352z" />
<glyph unicode="&#xee;" horiz-adv-x="573" d="M-92 1292l233 344h293l230 -344l-164 -98l-215 264l-213 -264zM141 0v1077h291v-1077h-291z" />
<glyph unicode="&#xef;" horiz-adv-x="573" d="M-78 1227v248h293v-248h-293zM141 0v1077h291v-1077h-291zM360 1227v248h293v-248h-293z" />
<glyph unicode="&#xf0;" horiz-adv-x="1247" d="M68 487q0 215 143 351.5t362 136.5q119 0 215 -57q-100 167 -305 290l-96 -178l-184 100l92 173q-70 33 -162 67l100 234l179 -80l88 164l186 -99l-84 -159q578 -324 578 -893q0 -240 -162 -401t-416 -161q-223 0 -378.5 153t-155.5 359zM365 494q0 -115 71.5 -197 t177.5 -82q137 0 203 89t66 226q-1 64 -15 140q-102 66 -227 65q-117 0 -196.5 -62.5t-79.5 -178.5z" />
<glyph unicode="&#xf1;" horiz-adv-x="1265" d="M141 0v1077h252l23 -147q123 172 334 172q176 0 286 -141q96 -125 97 -402v-559h-291v545q0 166 -33 231q-39 76 -143 76q-66 0 -130.5 -37t-103.5 -100v-715h-291zM307 1292q0 94 64.5 152.5t171.5 58.5q76 0 176 -52t123 -52q47 0 51 47q0 12 -2 14l166 19 q12 -39 12 -78q0 -94 -64.5 -152.5t-170.5 -58.5q-76 0 -176.5 52t-122.5 52q-47 0 -52 -47q0 -12 2 -14l-166 -19q-12 39 -12 78z" />
<glyph unicode="&#xf2;" horiz-adv-x="1263" d="M68 538.5q0 239.5 159.5 401.5t405.5 162q244 0 403.5 -162t159.5 -401.5t-159.5 -401.5t-403.5 -162q-246 0 -405.5 162t-159.5 401.5zM238 1536l196 156l273 -381l-168 -127zM365 539q0 -133 74.5 -223.5t193.5 -90.5t192.5 89t73.5 224.5t-73.5 224.5t-192.5 89 t-193.5 -90t-74.5 -223z" />
<glyph unicode="&#xf3;" horiz-adv-x="1263" d="M68 538.5q0 239.5 159.5 401.5t405.5 162q244 0 403.5 -162t159.5 -401.5t-159.5 -401.5t-403.5 -162q-246 0 -405.5 162t-159.5 401.5zM365 539q0 -133 74.5 -223.5t193.5 -90.5t192.5 89t73.5 224.5t-73.5 224.5t-192.5 89t-193.5 -90t-74.5 -223zM535 1311l272 381 l197 -156l-302 -352z" />
<glyph unicode="&#xf4;" horiz-adv-x="1263" d="M68 538.5q0 239.5 159.5 401.5t405.5 162q244 0 403.5 -162t159.5 -401.5t-159.5 -401.5t-403.5 -162q-246 0 -405.5 162t-159.5 401.5zM256 1292l233 344h293l230 -344l-164 -98l-215 264l-213 -264zM365 539q0 -133 74.5 -223.5t193.5 -90.5t192.5 89t73.5 224.5 t-73.5 224.5t-192.5 89t-193.5 -90t-74.5 -223z" />
<glyph unicode="&#xf5;" horiz-adv-x="1263" d="M68 538.5q0 239.5 159.5 401.5t405.5 162q244 0 403.5 -162t159.5 -401.5t-159.5 -401.5t-403.5 -162q-246 0 -405.5 162t-159.5 401.5zM285 1292q0 94 64.5 152.5t170.5 58.5q76 0 176.5 -52t122.5 -52q47 0 51 47q0 12 -2 14l166 19q12 -39 13 -78q0 -94 -64.5 -152.5 t-171.5 -58.5q-76 0 -176 52t-123 52q-47 0 -51 -47q0 -12 2 -14l-166 -19q-12 39 -12 78zM365 539q0 -133 74.5 -223.5t193.5 -90.5t192.5 89t73.5 224.5t-73.5 224.5t-192.5 89t-193.5 -90t-74.5 -223z" />
<glyph unicode="&#xf6;" horiz-adv-x="1263" d="M68 538.5q0 239.5 159.5 401.5t405.5 162q244 0 403.5 -162t159.5 -401.5t-159.5 -401.5t-403.5 -162q-246 0 -405.5 162t-159.5 401.5zM240 1227v248h292v-248h-292zM365 539q0 -133 74.5 -223.5t193.5 -90.5t192.5 89t73.5 224.5t-73.5 224.5t-192.5 89t-193.5 -90 t-74.5 -223zM733 1227v248h293v-248h-293z" />
<glyph unicode="&#xf7;" d="M49 526v232h1026v-232h-1026zM403 78v305h314v-305h-314zM403 901v305h314v-305h-314z" />
<glyph unicode="&#xf8;" horiz-adv-x="1263" d="M68 539q0 240 159.5 401.5t405.5 161.5q127 0 233 -47l49 71l150 -98l-47 -70q178 -166 178 -419q0 -240 -159.5 -402t-403.5 -162q-131 0 -246 52l-57 -86l-150 98l58 88q-170 164 -170 412zM365 539q0 -92 38 -170l316 469q-47 14 -86 14q-119 0 -193.5 -90t-74.5 -223 zM535 244q47 -18 98 -19q119 0 192.5 89.5t73.5 224.5q0 100 -45 178z" />
<glyph unicode="&#xf9;" horiz-adv-x="1265" d="M131 518v559h291v-545q0 -166 33 -231q37 -76 143 -76q66 0 130.5 37t102.5 100v715h291v-1077h-252l-22 147q-123 -172 -334 -172q-176 0 -287 142q-96 125 -96 401zM307 1536l197 156l272 -381l-168 -127z" />
<glyph unicode="&#xfa;" horiz-adv-x="1265" d="M131 518v559h291v-545q0 -166 33 -231q37 -76 143 -76q66 0 130.5 37t102.5 100v715h291v-1077h-252l-22 147q-123 -172 -334 -172q-176 0 -287 142q-96 125 -96 401zM514 1311l272 381l197 -156l-301 -352z" />
<glyph unicode="&#xfb;" horiz-adv-x="1265" d="M131 518v559h291v-545q0 -166 33 -231q37 -76 143 -76q66 0 130.5 37t102.5 100v715h291v-1077h-252l-22 147q-123 -172 -334 -172q-176 0 -287 142q-96 125 -96 401zM258 1292l234 344h292l230 -344l-164 -98l-215 264l-213 -264z" />
<glyph unicode="&#xfc;" horiz-adv-x="1265" d="M131 518v559h291v-545q0 -166 33 -231q37 -76 143 -76q66 0 130.5 37t102.5 100v715h291v-1077h-252l-22 147q-123 -172 -334 -172q-176 0 -287 142q-96 125 -96 401zM236 1227v248h292v-248h-292zM729 1227v248h293v-248h-293z" />
<glyph unicode="&#xfd;" horiz-adv-x="1087" d="M6 1077h318l217 -641h4l221 641h315l-606 -1571l-260 101l172 456zM406 1311l272 381l196 -156l-301 -352z" />
<glyph unicode="&#xfe;" horiz-adv-x="1318" d="M141 -512v2048h291v-571q53 70 141.5 103.5t176.5 33.5q213 0 357 -165t144 -402q0 -231 -144 -395.5t-359 -164.5q-205 0 -316 127v-614h-291zM432 342q96 -117 250 -117q131 0 201.5 95.5t70.5 222.5t-73.5 218t-194.5 91q-168 0 -254 -143v-367z" />
<glyph unicode="&#xff;" horiz-adv-x="1087" d="M6 1077h318l217 -641h4l221 641h315l-606 -1571l-260 101l172 456zM156 1227v248h293v-248h-293zM649 1227v248h293v-248h-293z" />
<glyph unicode="&#x152;" horiz-adv-x="2162" d="M100 717q0 309 217.5 525t534.5 216q139 0 281 -63v39h919v-248h-625v-324h625v-248h-625v-366h625v-248h-919v39q-143 -63 -281 -64q-317 0 -534.5 216.5t-217.5 525.5zM414 717q0 -207 125 -346.5t313 -139.5q166 0 281 99v774q-115 98 -281 98q-188 0 -313 -139 t-125 -346z" />
<glyph unicode="&#x153;" horiz-adv-x="2029" d="M68 538.5q0 239.5 159.5 401.5t405.5 162q260 0 411 -184q152 184 396 184q225 0 372.5 -141.5t147.5 -356.5q0 -61 -14 -137h-758q16 -115 87 -186.5t183 -71.5q98 0 161.5 39t119.5 121l190 -129q-94 -137 -207.5 -201t-283.5 -64q-258 0 -402 172q-156 -172 -403 -172 q-246 0 -405.5 162t-159.5 401.5zM365 539q0 -133 74.5 -223.5t193.5 -90.5t192.5 89t73.5 224.5t-73.5 224.5t-192.5 89t-193.5 -90t-74.5 -223zM1202 666h461q-4 96 -64.5 152t-150.5 56q-193 1 -246 -208z" />
<glyph unicode="&#x178;" horiz-adv-x="1245" d="M8 1434h363l250 -516h4l270 516h342l-479 -842v-592h-295v604zM209 1561v245h305v-245h-305zM754 1561v245h303v-245h-303z" />
<glyph unicode="&#x2c6;" horiz-adv-x="737" d="M-10 1292l233 344h293l229 -344l-163 -98l-215 264l-213 -264z" />
<glyph unicode="&#x2dc;" horiz-adv-x="737" d="M-12 1292q0 94 64.5 152.5t170.5 58.5q76 0 176.5 -52t122.5 -52q47 0 51 47q0 12 -2 14l166 19q12 -39 13 -78q0 -94 -64.5 -152.5t-171.5 -58.5q-76 0 -176 52t-123 52q-47 0 -51 -47q0 -12 2 -14l-166 -19q-12 39 -12 78z" />
<glyph unicode="&#x2000;" horiz-adv-x="981" />
<glyph unicode="&#x2001;" horiz-adv-x="1962" />
<glyph unicode="&#x2002;" horiz-adv-x="981" />
<glyph unicode="&#x2003;" horiz-adv-x="1962" />
<glyph unicode="&#x2004;" horiz-adv-x="654" />
<glyph unicode="&#x2005;" horiz-adv-x="490" />
<glyph unicode="&#x2006;" horiz-adv-x="327" />
<glyph unicode="&#x2007;" horiz-adv-x="327" />
<glyph unicode="&#x2008;" horiz-adv-x="245" />
<glyph unicode="&#x2009;" horiz-adv-x="392" />
<glyph unicode="&#x200a;" horiz-adv-x="109" />
<glyph unicode="&#x2010;" horiz-adv-x="915" d="M168 473v242h580v-242h-580z" />
<glyph unicode="&#x2011;" horiz-adv-x="915" d="M168 473v242h580v-242h-580z" />
<glyph unicode="&#x2012;" horiz-adv-x="915" d="M168 473v242h580v-242h-580z" />
<glyph unicode="&#x2013;" horiz-adv-x="1228" d="M102 530v244h1024v-244h-1024z" />
<glyph unicode="&#x2014;" horiz-adv-x="1843" d="M102 530v244h1639v-244h-1639z" />
<glyph unicode="&#x2018;" horiz-adv-x="626" d="M100 868l150 566h276l-116 -566h-310z" />
<glyph unicode="&#x2019;" horiz-adv-x="626" d="M100 868l117 566h309l-149 -566h-277z" />
<glyph unicode="&#x201a;" horiz-adv-x="626" d="M100 -260l117 565h309l-149 -565h-277z" />
<glyph unicode="&#x201c;" horiz-adv-x="1169" d="M135 868l150 566h276l-117 -566h-309zM608 868l150 566h276l-116 -566h-310z" />
<glyph unicode="&#x201d;" horiz-adv-x="1169" d="M135 868l117 566h309l-149 -566h-277zM608 868l117 566h309l-149 -566h-277z" />
<glyph unicode="&#x201e;" horiz-adv-x="1169" d="M135 -260l117 565h309l-149 -565h-277zM608 -260l117 565h309l-149 -565h-277z" />
<glyph unicode="&#x2022;" horiz-adv-x="727" d="M72 592q0 121 86 207t206.5 86t205.5 -86t85 -207t-85 -207t-205.5 -86t-206.5 86t-86 207z" />
<glyph unicode="&#x2026;" horiz-adv-x="1536" d="M113 0v305h311v-305h-311zM610 0v305h314v-305h-314zM1110 0v305h311v-305h-311z" />
<glyph unicode="&#x202f;" horiz-adv-x="392" />
<glyph unicode="&#x2039;" horiz-adv-x="690" d="M100 430v236l330 344l158 -215l-258 -248l258 -246l-158 -217z" />
<glyph unicode="&#x203a;" horiz-adv-x="690" d="M100 301l258 246l-258 246l158 217l330 -344v-238l-330 -344z" />
<glyph unicode="&#x205f;" horiz-adv-x="490" />
<glyph unicode="&#x20ac;" horiz-adv-x="1331" d="M29 422v190h135q-4 45 -4 68q0 20 4 61h-135v195h174q53 145 165.5 250.5t239.5 151.5t256 46q219 0 432 -131l-125 -211q-135 109 -297 109q-256 0 -370 -215h483v-195h-543q-4 -20 -4 -61q0 -47 4 -68h543v-190h-489q57 -111 159.5 -162t216.5 -51q174 0 302 115 l149 -193q-207 -156 -469 -156q-209 0 -394.5 114t-260.5 333h-172z" />
<glyph unicode="&#x2122;" horiz-adv-x="2013" d="M135 1260v174h608v-174h-198v-699h-211v699h-199zM846 561v873h313l203 -529l211 529h307v-873h-209v606l-248 -606h-127l-243 610v-610h-207z" />
<glyph unicode="&#x25fc;" horiz-adv-x="1075" d="M0 0v1075h1075v-1075h-1075z" />
</font>
</defs>
</svg>
